<?xml version="1.0" encoding="UTF-8" standalone="no"?>
<!-- Created with Inkscape (http://www.inkscape.org/) -->

<svg
   width="100.9387mm"
   height="98.095764mm"
   viewBox="0 0 100.9387 98.095767"
   version="1.1"
   id="svg5"
   inkscape:version="1.2 (dc2aeda, 2022-05-15)"
   sodipodi:docname="edsnlp-whitesvg.svg"
   inkscape:export-filename="/home/basile/Desktop/eds-pseudo-blue.png"
   inkscape:export-xdpi="82.868202"
   inkscape:export-ydpi="82.868202"
   xmlns:inkscape="http://www.inkscape.org/namespaces/inkscape"
   xmlns:sodipodi="http://sodipodi.sourceforge.net/DTD/sodipodi-0.dtd"
   xmlns="http://www.w3.org/2000/svg"
   xmlns:svg="http://www.w3.org/2000/svg">
  <sodipodi:namedview
     id="namedview7"
     pagecolor="#ffffff"
     bordercolor="#666666"
     borderopacity="1.0"
     inkscape:pageshadow="2"
     inkscape:pageopacity="0.0"
     inkscape:pagecheckerboard="true"
     inkscape:document-units="mm"
     showgrid="false"
     showguides="true"
     inkscape:guide-bbox="true"
     inkscape:snap-global="true"
     inkscape:zoom="2.4525878"
     inkscape:cx="157.38478"
     inkscape:cy="177.36368"
     inkscape:window-width="2560"
     inkscape:window-height="1440"
     inkscape:window-x="0"
     inkscape:window-y="0"
     inkscape:window-maximized="0"
     inkscape:current-layer="layer1"
     fit-margin-top="5"
     fit-margin-left="5"
     fit-margin-right="5"
     fit-margin-bottom="5"
     inkscape:showpageshadow="0"
     inkscape:deskcolor="#d1d1d1">
    <sodipodi:guide
       position="31.632814,4.9999982"
       orientation="0,-1"
       id="guide40370"
       inkscape:locked="false" />
    <sodipodi:guide
       position="38.288435,52.740621"
       orientation="1,0"
       id="guide40435"
       inkscape:locked="false" />
    <sodipodi:guide
       position="69.788637,54.366847"
       orientation="1,0"
       id="guide40437"
       inkscape:locked="false" />
    <sodipodi:guide
       position="24.65947,45.043091"
       orientation="1,0"
       id="guide1354"
       inkscape:locked="false" />
    <sodipodi:guide
       position="11.973345,24.863757"
       orientation="1,0"
       id="guide1356"
       inkscape:locked="false" />
  </sodipodi:namedview>
  <defs
     id="defs2" />
  <g
     inkscape:label="Layer 1"
     inkscape:groupmode="layer"
     id="layer1"
     transform="translate(1.3231664,-0.08702652)">
    <g
       aria-label="E"
       id="text7586"
       style="font-size:10.5833px;line-height:1.25;fill:#ffffff;fill-opacity:1;stroke-width:0.264583"
       transform="matrix(5.1901158,0,0,5.1901158,-39.282864,-56.255025)">
      <path
         d="M 13.083107,19.594398 H 8.2772137 v -7.715266 h 4.8058933 v 1.343583 H 9.8016636 v 1.663976 h 2.9713854 v 1.343582 H 9.8016636 v 2.020543 h 3.2814434 z"
         style="font-weight:bold;font-family:'DejaVu Sans Mono';-inkscape-font-specification:'DejaVu Sans Mono Bold';fill:#ffffff;fill-opacity:1"
         id="path49410" />
    </g>
    <g
       aria-label="D"
       id="text19044"
       style="font-size:10.5833px;line-height:1.25;fill:#ffffff;fill-opacity:1;stroke-width:0.264583"
       transform="matrix(5.1901158,0,0,5.1901158,-147.5962,-39.741149)">
      <path
         d="m 37.084633,10.071927 v 4.96609 h 0.413411 q 0.899167,0 1.281571,-0.563272 0.382404,-0.568439 0.382404,-1.927525 0,-1.34875 -0.382404,-1.912021 -0.382404,-0.563272 -1.281571,-0.563272 z m -1.52445,-1.3745885 h 1.632971 q 1.891351,0 2.723339,0.9043347 0.831988,0.8991668 0.831988,2.9455468 0,2.051548 -0.831988,2.961051 -0.831988,0.904334 -2.723339,0.904334 h -1.632971 z"
         style="font-weight:bold;font-family:'DejaVu Sans Mono';-inkscape-font-specification:'DejaVu Sans Mono Bold';fill:#ffffff;fill-opacity:1"
         id="path49431" />
    </g>
    <g
       aria-label="S"
       id="text20500"
       style="font-size:10.5833px;line-height:1.25;fill:#ffffff;fill-opacity:1;stroke-width:0.264583"
       transform="matrix(5.1901158,0,0,5.1901158,-170.67505,-108.02889)">
      <path
         d="m 48.014003,26.264485 q -1.152381,-0.439248 -1.560623,-0.919838 -0.408243,-0.485756 -0.408243,-1.302242 0,-1.049028 0.671792,-1.648472 0.671791,-0.599445 1.844842,-0.599445 0.532266,0 1.064532,0.124023 0.532265,0.118855 1.054195,0.356566 v 1.488277 q -0.490924,-0.346231 -0.997352,-0.527098 -0.506427,-0.180867 -1.002519,-0.180867 -0.552936,0 -0.847491,0.222208 -0.294555,0.222208 -0.294555,0.635618 0,0.320393 0.211873,0.532265 0.21704,0.206705 0.899167,0.459919 l 0.656289,0.248046 q 0.930173,0.341064 1.369421,0.904335 0.439248,0.563271 0.439248,1.421097 0,1.167884 -0.692462,1.746658 -0.687294,0.573607 -2.082554,0.573607 -0.573606,0 -1.15238,-0.139526 -0.573607,-0.134358 -1.11104,-0.403075 v -1.576126 q 0.60978,0.43408 1.178219,0.645953 0.573606,0.211873 1.13171,0.211873 0.563271,0 0.873329,-0.253214 0.310058,-0.258381 0.310058,-0.7183 0,-0.346231 -0.206705,-0.604612 -0.206705,-0.263549 -0.599445,-0.413411 z"
         style="font-weight:bold;font-family:'DejaVu Sans Mono';-inkscape-font-specification:'DejaVu Sans Mono Bold';fill:#ffffff;fill-opacity:1"
         id="path49452" />
    </g>
    <text
       xml:space="preserve"
       style="font-style:normal;font-weight:normal;font-size:10.5833px;line-height:1.25;font-family:sans-serif;fill:#000000;fill-opacity:1;stroke:none;stroke-width:0.264583"
       x="39.661598"
       y="67.77536"
       id="text18833"><tspan
         sodipodi:role="line"
         id="tspan18831"
         style="stroke-width:0.264583"
         x="39.661598"
         y="67.77536" /></text>
    <g
       aria-label="N"
       id="text974"
       style="font-size:54.9285px;fill:#ffffff;stroke-width:0.572172;fill-opacity:1">
      <path
         d="M 3.6768336,53.139701 H 12.17895 l 11.157353,26.173192 -1e-6,-26.173192 h 6.973345 v 40.043092 h -8.448476 l -11.210993,-26.498428 0,26.498428 H 3.6768336 Z"
         style="font-weight:bold;font-family:Menlo;-inkscape-font-specification:'Menlo Bold';fill:#ffffff;fill-opacity:1"
         id="path1298"
         sodipodi:nodetypes="ccccccccccc" />
    </g>
    <g
       aria-label="L"
       id="text1284"
       style="font-weight:bold;font-size:54.9285px;font-family:Menlo;-inkscape-font-specification:'Menlo Bold';fill:#ffffff;stroke-width:0.572172;fill-opacity:1">
      <path
         d="M 36.965267,93.182793 V 53.139701 h 7.912064 v 33.069747 h 16.923772 v 6.973345 z"
         id="path1301"
         style="fill:#ffffff;fill-opacity:1" />
    </g>
    <g
       aria-label="P"
       id="text1288"
       style="font-weight:bold;font-size:54.9285px;font-family:Menlo;-inkscape-font-specification:'Menlo Bold';fill:#ffffff;stroke-width:0.572172;fill-opacity:1">
      <path
         d="m 76.216608,59.791199 v 11.747404 h 3.245288 q 3.888981,0 5.444573,-1.314207 1.582413,-1.314208 1.582413,-4.559495 0,-3.245287 -1.582413,-4.559495 -1.555592,-1.314207 -5.444573,-1.314207 z M 68.304544,53.139701 H 79.16687 q 8.287552,0 11.908327,2.950261 3.647596,2.950261 3.647596,9.574939 0,6.624678 -3.647596,9.574939 -3.620775,2.950261 -11.908327,2.950261 h -2.950262 v 14.992692 h -7.912064 z"
         id="path1304"
         style="fill:#ffffff;fill-opacity:1" />
    </g>
  </g>
</svg>
